<svg width="41" height="26" viewBox="0 0 750 471" fill="none" xmlns="http://www.w3.org/2000/svg">
<rect width="750" height="471" rx="40" fill="#0D6EFD"/>
<path d="M328.051 117.057C309.25 145.237 246.611 165.068 236.28 161.937V161.842C246.972 140.132 262.728 121.431 282.165 107.379C286.074 104.532 290.076 101.875 294.172 99.5032C302.921 94.3795 311.856 94.0949 314.834 94C342.756 94.4744 328.237 116.772 328.051 117.057ZM312.228 328.078C313.624 337.281 312.228 373.907 310.367 376.943C308.691 377.038 305.341 377.227 295.568 371.724C262.522 352.662 237.435 321.96 225.018 285.38C213.779 251.688 214.372 215.063 226.693 181.767C237.862 196.759 250.892 210.327 261.875 225.414C272.392 239.931 286.819 263.367 289.797 268.396C307.947 299.613 310.832 318.779 312.228 328.078ZM533 237.559C533 257.579 529.091 276.746 522.11 294.299C503.495 313.75 378.59 265.739 377.38 265.17C360.254 257.864 308.226 235.471 303.572 200.459C296.778 149.981 401.3 114.78 447.186 113.451C452.77 113.546 469.523 113.736 479.203 121.516C495.964 135.658 509.47 153.383 518.766 173.436C528.063 193.489 532.922 215.379 533 237.559V237.559ZM452.025 374.191C438.995 380.548 424.569 375.899 428.292 362.426C435.458 336.617 498.097 310.145 511.872 308.722C513.641 308.532 514.292 309.67 513.547 311.188C499.36 337.722 478.01 359.553 452.025 374.096" fill="white"/>
</svg>
