<svg width="36" height="36" viewBox="0 0 36 36" fill="none" xmlns="http://www.w3.org/2000/svg">
    <rect width="36" height="36" rx="3" fill="#0D6EFD"/>
    <path d="M13.6798 7.30656C11.9498 9.89174 6.18608 11.7109 5.23545 11.4237V11.415C6.21927 9.42344 7.6691 7.70781 9.45763 6.41872C9.81733 6.15759 10.1856 5.91387 10.5624 5.69626C11.3675 5.22622 12.1896 5.20011 12.4637 5.19141C15.033 5.23493 13.6969 7.28044 13.6798 7.30656ZM12.2239 26.665C12.3524 27.5093 12.2239 30.8692 12.0526 31.1477C11.8985 31.1564 11.5901 31.1738 10.6909 30.669C7.65012 28.9202 5.34181 26.1037 4.19917 22.748C3.16508 19.6573 3.21957 16.2974 4.35333 13.2429C5.38104 14.6182 6.58004 15.8629 7.59062 17.2469C8.55838 18.5787 9.88585 20.7286 10.1599 21.1899C11.8299 24.0537 12.0954 25.8119 12.2239 26.665ZM32.5384 18.361C32.5384 20.1977 32.1786 21.9559 31.5363 23.5662C29.8235 25.3506 18.3302 20.9462 18.2189 20.894C16.6431 20.2238 11.8556 18.1696 11.4274 14.9577C10.8022 10.327 20.4199 7.09765 24.6421 6.97579C25.1559 6.9845 26.6975 7.00191 27.5882 7.71566C29.1304 9.013 30.3732 10.639 31.2286 12.4786C32.084 14.3182 32.5312 16.3264 32.5384 18.361V18.361ZM25.0874 30.8953C23.8884 31.4785 22.561 31.0519 22.9035 29.8159C23.563 27.4484 29.3267 25.0199 30.5943 24.8893C30.757 24.8719 30.8169 24.9763 30.7484 25.1156C29.4429 27.5497 27.4784 29.5524 25.0874 30.8866" fill="white"/>
</svg>
